<svg xmlns="http://www.w3.org/2000/svg" xmlns:xlink="http://www.w3.org/1999/xlink" width="1200" viewBox="0 0 1239.84 290"><defs><style>.cls-1,.cls-36{opacity:0.3;}.cls-12,.cls-2,.cls-27,.cls-33,.cls-35,.cls-36,.cls-44,.cls-5,.cls-50,.cls-55,.cls-62,.cls-63,.cls-64,.cls-72{fill:none;}.cls-2,.cls-36,.cls-72{stroke:#0ad05b;}.cls-12,.cls-2,.cls-27,.cls-35,.cls-36,.cls-79{stroke-miterlimit:10;}.cls-2,.cls-33,.cls-34,.cls-36,.cls-64{stroke-width:0.63px;}.cls-3{fill:url(#linear-gradient);}.cls-4{fill:url(#Green_gradient);}.cls-5{stroke:#09804c;}.cls-33,.cls-34,.cls-44,.cls-46,.cls-5,.cls-50,.cls-62,.cls-63,.cls-64,.cls-67,.cls-72,.cls-75{stroke-linecap:round;stroke-linejoin:round;}.cls-6{fill:url(#linear-gradient-2);}.cls-7{fill:#ed5d75;}.cls-8{fill:#f7a76f;}.cls-9{fill:url(#New_Gradient_Swatch);}.cls-10{fill:#4f4fbf;}.cls-11{fill:#ffdd49;}.cls-12{stroke:#f97216;}.cls-13,.cls-20,.cls-21,.cls-22,.cls-29,.cls-30,.cls-40,.cls-41,.cls-61,.cls-69,.cls-78{opacity:0.5;}.cls-14{fill:url(#linear-gradient-3);}.cls-15{fill:url(#linear-gradient-4);}.cls-16{fill:url(#linear-gradient-6);}.cls-17{fill:url(#linear-gradient-7);}.cls-18{fill:#141c21;}.cls-19{fill:#13aa52;}.cls-20{fill:url(#linear-gradient-8);}.cls-21{fill:url(#linear-gradient-9);}.cls-22{fill:url(#linear-gradient-10);}.cls-23{fill:#6e60f7;}.cls-24{fill:#c17a49;}.cls-25{fill:url(#New_Gradient_Swatch-2);}.cls-26{fill:#f97216;}.cls-27{stroke:#0b3b35;}.cls-28{fill:#21313c;}.cls-29{fill:url(#linear-gradient-11);}.cls-30{fill:url(#linear-gradient-12);}.cls-31{fill:url(#linear-gradient-13);}.cls-32{fill:url(#linear-gradient-14);}.cls-33,.cls-34,.cls-35,.cls-44,.cls-46{stroke:#13aa52;}.cls-34{fill:url(#linear-gradient-15);}.cls-37{fill:url(#linear-gradient-16);}.cls-38{fill:url(#linear-gradient-17);}.cls-39{fill:url(#Green_gradient-2);}.cls-40{fill:url(#linear-gradient-18);}.cls-41{fill:url(#linear-gradient-19);}.cls-42{fill:url(#linear-gradient-20);}.cls-43{fill:url(#linear-gradient-21);}.cls-44,.cls-46{stroke-width:1.19px;}.cls-45{fill:url(#linear-gradient-22);}.cls-46{fill:url(#linear-gradient-23);}.cls-47{fill:url(#linear-gradient-24);}.cls-48{fill:url(#linear-gradient-25);}.cls-49{fill:url(#Green_gradient-3);}.cls-50{stroke:#2f9fc5;}.cls-51{opacity:0.49;fill:url(#linear-gradient-26);}.cls-52{opacity:0.4;fill:url(#linear-gradient-27);}.cls-53{fill:#c67b47;}.cls-54{fill:#2f9fc5;}.cls-56{fill:#472509;}.cls-57{fill:#f5ccbf;}.cls-58{fill:#bfb477;}.cls-59{fill:#d3509b;}.cls-60{fill:#543e07;}.cls-61{fill:url(#linear-gradient-28);}.cls-62{stroke:#d83a6c;}.cls-62,.cls-63,.cls-67,.cls-75{stroke-width:1.25px;}.cls-63{stroke:#ed5d75;}.cls-64,.cls-67{stroke:#6e60f9;}.cls-65{fill:url(#linear-gradient-29);}.cls-66{fill:url(#linear-gradient-30);}.cls-67,.cls-68{fill:#6e60f9;}.cls-69{fill:url(#linear-gradient-31);}.cls-70{fill:url(#linear-gradient-32);}.cls-71{fill:url(#linear-gradient-33);}.cls-72{stroke-width:0.89px;}.cls-73{fill:url(#linear-gradient-34);}.cls-74{fill:url(#New_Gradient_Swatch-3);}.cls-75,.cls-79,.cls-87{fill:#fff;}.cls-75,.cls-79{stroke:#fff;}.cls-76{fill:#d18b5a;}.cls-77{fill:url(#New_Gradient_Swatch-4);}.cls-78{fill:url(#linear-gradient-35);}.cls-80{fill:url(#Green_gradient-4);}.cls-81{fill:url(#Green_gradient-5);}.cls-82{fill:url(#Green_gradient-6);}.cls-83{opacity:0.6;}.cls-84{fill:url(#linear-gradient-36);}.cls-85{fill:#0ad05b;}.cls-86{fill:#d83a6c;}</style><linearGradient id="linear-gradient" x1="87.01" y1="94.82" x2="217.27" y2="94.82" gradientUnits="userSpaceOnUse"><stop offset="0" stop-color="#0ad05b"/><stop offset="0.16" stop-color="#15d162"/><stop offset="0.43" stop-color="#34d475"/><stop offset="0.8" stop-color="#65d894"/><stop offset="1" stop-color="#83dba7"/></linearGradient><linearGradient id="Green_gradient" x1="162.46" y1="138.31" x2="214.03" y2="86.74" gradientUnits="userSpaceOnUse"><stop offset="0" stop-color="#0ad05b"/><stop offset="0.31" stop-color="#0ea354"/><stop offset="0.6" stop-color="#117f4e"/><stop offset="0.84" stop-color="#12694a"/><stop offset="1" stop-color="#136149"/></linearGradient><linearGradient id="linear-gradient-2" x1="34.88" y1="192.43" x2="50.34" y2="192.43" xlink:href="#linear-gradient"/><linearGradient id="New_Gradient_Swatch" x1="247.06" y1="167.36" x2="321.59" y2="167.36" gradientUnits="userSpaceOnUse"><stop offset="0" stop-color="#36367f"/><stop offset="1" stop-color="#6e60f9"/></linearGradient><linearGradient id="linear-gradient-3" x1="291.25" y1="180.18" x2="367.26" y2="180.18" xlink:href="#linear-gradient"/><linearGradient id="linear-gradient-4" x1="325.34" y1="180.18" x2="333.17" y2="180.18" xlink:href="#linear-gradient"/><linearGradient id="linear-gradient-6" x1="261.01" y1="204.35" x2="286.75" y2="204.35" xlink:href="#linear-gradient"/><linearGradient id="linear-gradient-7" x1="270.31" y1="204.35" x2="277.45" y2="204.35" xlink:href="#linear-gradient"/><linearGradient id="linear-gradient-8" x1="82.54" y1="211.68" x2="206.01" y2="211.68" xlink:href="#linear-gradient"/><linearGradient id="linear-gradient-9" x1="82.54" y1="163.29" x2="206.01" y2="163.29" xlink:href="#linear-gradient"/><linearGradient id="linear-gradient-10" x1="82.54" y1="177.11" x2="206.01" y2="177.11" xlink:href="#linear-gradient"/><linearGradient id="New_Gradient_Swatch-2" x1="136.38" y1="218.42" x2="208.61" y2="218.42" gradientTransform="matrix(-1, 0, 0, 1, 355.1, 0)" xlink:href="#New_Gradient_Swatch"/><linearGradient id="linear-gradient-11" x1="374.16" y1="229" x2="376.29" y2="276.91" xlink:href="#linear-gradient"/><linearGradient id="linear-gradient-12" x1="342.12" y1="231.69" x2="407.55" y2="231.69" xlink:href="#linear-gradient"/><linearGradient id="linear-gradient-13" x1="10036.39" y1="-1297.46" x2="10036.39" y2="-1324.41" gradientTransform="matrix(-1, 0, 0, 1, 10397.91, 1502.77)" xlink:href="#linear-gradient"/><linearGradient id="linear-gradient-14" x1="10031.97" y1="-1323.06" x2="10012.18" y2="-1334.48" gradientTransform="matrix(-1, 0, 0, 1, 10397.91, 1502.77)" xlink:href="#linear-gradient"/><linearGradient id="linear-gradient-15" x1="10023.61" y1="-1087.47" x2="10023.61" y2="-1087.47" gradientTransform="matrix(-1, 0, 0, 0.74, 10397.86, 1004.88)" gradientUnits="userSpaceOnUse"><stop offset="0" stop-color="#b9eacd"/><stop offset="1" stop-color="#13aa52"/></linearGradient><linearGradient id="linear-gradient-16" x1="795.93" y1="73.07" x2="795.93" y2="34.21" xlink:href="#linear-gradient"/><linearGradient id="linear-gradient-17" x1="785.63" y1="81.93" x2="785.63" y2="173.14" gradientUnits="userSpaceOnUse"><stop offset="0" stop-color="#83dba7"/><stop offset="0.2" stop-color="#65d894"/><stop offset="0.57" stop-color="#34d475"/><stop offset="0.84" stop-color="#15d162"/><stop offset="1" stop-color="#0ad05b"/></linearGradient><linearGradient id="Green_gradient-2" x1="806.24" y1="83.93" x2="806.24" y2="178.23" xlink:href="#Green_gradient"/><linearGradient id="linear-gradient-18" x1="795.29" y1="50.39" x2="796.54" y2="78.61" xlink:href="#linear-gradient"/><linearGradient id="linear-gradient-19" x1="776.41" y1="51.98" x2="814.95" y2="51.98" xlink:href="#linear-gradient"/><linearGradient id="linear-gradient-20" x1="9610.07" y1="-1466.33" x2="9610.07" y2="-1482.2" gradientTransform="matrix(-1, 0, 0, 1, 10397.91, 1502.77)" xlink:href="#linear-gradient"/><linearGradient id="linear-gradient-21" x1="9607.47" y1="-1481.4" x2="9595.82" y2="-1488.13" gradientTransform="matrix(-1, 0, 0, 1, 10397.91, 1502.77)" xlink:href="#linear-gradient"/><linearGradient id="linear-gradient-22" x1="9599.53" y1="-1467.31" x2="9585.79" y2="-1481.05" gradientTransform="matrix(-1, 0, 0, 1, 10397.91, 1502.77)" xlink:href="#linear-gradient"/><linearGradient id="linear-gradient-23" x1="9602.55" y1="-1316.87" x2="9602.55" y2="-1316.87" xlink:href="#linear-gradient-15"/><linearGradient id="linear-gradient-24" x1="865.4" y1="102.73" x2="865.4" y2="74.05" xlink:href="#linear-gradient"/><linearGradient id="linear-gradient-25" x1="857.8" y1="110.98" x2="857.8" y2="188.16" xlink:href="#linear-gradient-17"/><linearGradient id="Green_gradient-3" x1="873" y1="112.68" x2="873" y2="192.47" xlink:href="#Green_gradient"/><linearGradient id="linear-gradient-26" x1="1164.95" y1="151.79" x2="1167.19" y2="202.17" xlink:href="#linear-gradient"/><linearGradient id="linear-gradient-27" x1="1132.38" y1="154.62" x2="1198.92" y2="154.62" xlink:href="#linear-gradient"/><linearGradient id="linear-gradient-28" x1="507.96" y1="164.77" x2="586.95" y2="111.47" xlink:href="#linear-gradient"/><linearGradient id="linear-gradient-29" x1="460.62" y1="86.9" x2="473.86" y2="86.9" gradientTransform="translate(53.12 -146.26) rotate(18.84)" xlink:href="#linear-gradient"/><linearGradient id="linear-gradient-30" x1="439.56" y1="83.02" x2="449.13" y2="83.02" xlink:href="#linear-gradient"/><linearGradient id="linear-gradient-31" x1="698.77" y1="173.93" x2="700.74" y2="218.26" xlink:href="#linear-gradient"/><linearGradient id="linear-gradient-32" x1="690.51" y1="171.59" x2="690.51" y2="135.78" xlink:href="#linear-gradient"/><linearGradient id="linear-gradient-33" x1="699.6" y1="171.59" x2="699.6" y2="135.78" xlink:href="#linear-gradient"/><linearGradient id="linear-gradient-34" x1="708.78" y1="171.59" x2="708.78" y2="135.78" xlink:href="#linear-gradient"/><linearGradient id="New_Gradient_Swatch-3" x1="690.93" y1="179.22" x2="708.66" y2="179.22" xlink:href="#New_Gradient_Swatch"/><linearGradient id="New_Gradient_Swatch-4" x1="567.06" y1="182.25" x2="647.15" y2="182.25" xlink:href="#New_Gradient_Swatch"/><linearGradient id="linear-gradient-35" x1="592.75" y1="137.68" x2="665.54" y2="137.68" xlink:href="#linear-gradient"/><linearGradient id="Green_gradient-4" x1="552.69" y1="64.22" x2="453.73" y2="121.34" xlink:href="#Green_gradient"/><linearGradient id="Green_gradient-5" x1="558.83" y1="56.92" x2="489.15" y2="164.97" xlink:href="#Green_gradient"/><linearGradient id="Green_gradient-6" x1="510.58" y1="81.81" x2="510.15" y2="195.34" xlink:href="#Green_gradient"/><linearGradient id="linear-gradient-36" x1="510.64" y1="113.32" x2="550.16" y2="113.32" xlink:href="#linear-gradient"/></defs><g id="Layer_1" data-name="Layer 1"><g class="cls-1"><polygon class="cls-2" points="82.79 223.94 63.99 234.79 82.79 245.65 101.59 234.79 82.79 223.94"/><polygon class="cls-2" points="63.99 191.36 45.19 202.21 63.99 213.06 82.79 202.21 63.99 191.36"/><polygon class="cls-2" points="45.19 202.23 26.39 213.08 45.19 223.94 63.99 213.08 45.19 202.23"/><polygon class="cls-2" points="101.63 191.38 82.83 202.23 101.63 213.08 120.43 202.23 101.63 191.38"/><polygon class="cls-2" points="228.42 234.77 247.22 223.92 228.42 213.06 209.62 223.92 228.42 234.77"/><polygon class="cls-2" points="176.79 234.77 195.59 223.92 176.79 213.06 157.99 223.92 176.79 234.77"/><polygon class="cls-2" points="176.79 213.08 195.59 202.23 176.79 191.38 157.99 202.23 176.79 213.08"/><polygon class="cls-2" points="195.59 202.26 214.39 191.41 195.59 180.56 176.79 191.41 195.59 202.26"/><polygon class="cls-2" points="82.79 202.23 63.99 213.08 82.79 223.94 101.59 213.08 82.79 202.23"/><polygon class="cls-2" points="101.63 234.8 120.39 245.64 139.19 234.78 120.43 223.95 101.63 234.8"/></g><path class="cls-3" d="M87,114.82s8-40,45.49-40c39.5,0,47.52,40,84.77,40"/><path class="cls-4" d="M232.94,114.82S227.15,86,200.12,86c-28.49,0-34.28,28.86-61.15,28.86"/><path class="cls-5" d="M39.86,168.51c-6.75-1-3.79-6.27-8.9-6.31a11.61,11.61,0,0,1-11.43-11,13.54,13.54,0,0,1,0-1.81,7.74,7.74,0,0,0-2.45-6.64,11.56,11.56,0,0,1,1.32-18.18,4.35,4.35,0,0,0,1.49-5.39,11.53,11.53,0,0,1-.93-4.55c0-6.74,5.68-8,9.51-10A4.31,4.31,0,0,0,30.76,100a11.63,11.63,0,0,1-.22-2.23,11.32,11.32,0,0,1,22.62-.61A12.15,12.15,0,0,1,53,100a4.37,4.37,0,0,0,2.27,4.74c3.83,2,9.47,3.72,9.47,10a11.58,11.58,0,0,1-.4,3,4.38,4.38,0,0,0,2.09,4.89,11.53,11.53,0,0,1,1.43,18.91,7.79,7.79,0,0,0-2.75,7.33,12.09,12.09,0,0,1,.12,2.49,11.56,11.56,0,0,1-11,10.88c-4.88.23-3.65,4.62-8.34,6.06l-.63.17"/><path class="cls-6" d="M50.34,262.86c-5.68.14-15.46,0-15.46,0,1.36,0,4.64-65,5-94.35.24-20.12.25-38.57.24-44.21a2.36,2.36,0,0,1,2.35-2.36,2.39,2.39,0,0,1,1.67.68,2.35,2.35,0,0,1,.69,1.66c0,5.37.44,23.53,1.07,44C46.87,199.88,48.68,259.41,50.34,262.86Z"/><g id="Web-Icons---2C-25"><g id="Icons-25"><g id="MDB-Service-23"><path class="cls-5" d="M112.42,41.37s-1.06,22.92,14.36,17.28C134.45,43.81,112.42,41.37,112.42,41.37Z"/></g></g></g><g id="Web-Icons---2C-25-2" data-name="Web-Icons---2C-25"><g id="Icons-25-2" data-name="Icons-25"><g id="MDB-Service-23-2" data-name="MDB-Service-23"><path class="cls-5" d="M132,21.41s-15.7,17.46,0,22.29C147.33,36.6,132,21.41,132,21.41Z"/></g></g></g><path class="cls-5" d="M120.25,51.28a33.35,33.35,0,0,1,7.53,9.4A35.15,35.15,0,0,1,132,77.79"/><g id="Web-Icons---2C-25-3" data-name="Web-Icons---2C-25"><g id="Icons-25-3" data-name="Icons-25"><g id="MDB-Service-23-3" data-name="MDB-Service-23"><path class="cls-5" d="M151.52,41.37s1,22.92-14.36,17.28C129.49,43.81,151.52,41.37,151.52,41.37Z"/></g></g></g><path class="cls-5" d="M143.69,51.28a33.35,33.35,0,0,0-7.53,9.4A35.15,35.15,0,0,0,132,77.79"/><line class="cls-5" x1="131.97" y1="35.05" x2="131.97" y2="81.32"/><g class="cls-1"><polygon class="cls-2" points="299.3 226.86 280.5 237.72 299.3 248.57 318.1 237.72 299.3 226.86"/><polygon class="cls-2" points="377.24 105.83 358.44 116.69 377.24 127.54 396.04 116.69 377.24 105.83"/><polygon class="cls-2" points="377.24 127.52 358.44 138.37 377.24 149.23 396.04 138.37 377.24 127.52"/><polygon class="cls-2" points="358.44 138.34 339.64 149.19 358.44 160.05 377.24 149.19 358.44 138.34"/></g><path class="cls-7" d="M255,205.06l0,6.69H237.31a1.69,1.69,0,0,1,1.28-1.64l5.77-1.46c1.74-.44,4.91-1.84,5.27-3.59Z"/><polygon class="cls-8" points="247.1 196.53 252.31 196.53 252.28 202.48 246.93 202.48 247.1 196.53"/><path class="cls-7" d="M252.28,202l0,6.69H234.62A1.69,1.69,0,0,1,235.9,207l5.77-1.46c1.74-.44,4.9-1.84,5.27-3.59Z"/><polyline class="cls-9" points="293.05 136.5 252.09 136.5 247.06 198.22 250.83 198.2 262.68 147.81 321.59 136.5 306.43 136.5"/><polygon class="cls-8" points="249.79 199.63 255 199.63 254.97 205.57 249.62 205.57 249.79 199.63"/><path class="cls-10" d="M293.63,136.5H252.09l-2.3,63.13H255l9.5-48.95,37,4.88c11,1.21,20.47-8,20.17-19.06Z"/><path class="cls-11" d="M329.89,99.79,321.7,136.5l-28.95,0s-.64-11.24-.64-20.62c0-1-1.34-.86-3.13,1.2L281.16,125c-3.2,3.56-4.45,4.7-6.22,4.7l-27.66-8.25-.45-3.09,25.26,4.38,10.09-14.25c4.06-5.91,5.64-8.08,10.54-8.7"/><polyline class="cls-12" points="357.22 99.79 339.76 99.79 324.11 159.53"/><polyline class="cls-12" points="324.11 159.53 282.58 159.53 273.99 204.97"/><g class="cls-13"><path class="cls-14" d="M329.25,141.78a38.4,38.4,0,1,0,38,38.4A38.2,38.2,0,0,0,329.25,141.78Zm0,68.67a30.27,30.27,0,1,1,30-30.27A30.11,30.11,0,0,1,329.25,210.45Z"/><path class="cls-15" d="M333.17,180.18a3.92,3.92,0,1,1-3.92-4A3.93,3.93,0,0,1,333.17,180.18Z"/><path class="cls-15" d="M333.17,180.18a3.92,3.92,0,1,1-3.92-4A3.93,3.93,0,0,1,333.17,180.18Z"/></g><g class="cls-13"><path class="cls-16" d="M273.88,191.48a12.87,12.87,0,1,0,12.87,12.88A12.87,12.87,0,0,0,273.88,191.48Zm0,22.25a9.38,9.38,0,1,1,9.38-9.37A9.38,9.38,0,0,1,273.88,213.73Z"/><circle class="cls-17" cx="273.88" cy="204.35" r="3.57"/></g><path class="cls-8" d="M303.93,82.7,303.16,90a4.23,4.23,0,0,0,3.11,4.52h0a2,2,0,0,1,1.52,2v6.19a2,2,0,0,0,2,2h1.85a2,2,0,0,0,2.05-2V82.92a2,2,0,0,0-2.05-2H306A2,2,0,0,0,303.93,82.7Z"/><path class="cls-18" d="M304,81.68c-.45,1.4-.39,3,3.25,3A2.65,2.65,0,0,1,309.93,87c.16,1.44-1,1.7,1.84,4.68,3.36,3.57,9.56-6.82,5-11.41C311.39,74.86,305,78.71,304,81.68Z"/><path class="cls-8" d="M310.46,88.44c.88-1.16,1.93-1.15,2.45-.39.71,1.07.18,4.07-2.2,3.56S310.46,88.44,310.46,88.44Z"/><circle class="cls-18" cx="318.38" cy="79.04" r="4.82"/><path class="cls-8" d="M343.7,163.32a61.31,61.31,0,0,0-1.13,6.14c0,.64-1.64,1.28-1.8.91s-.67-3.47-1.37-3.53c-.16,0-.58,1.06-.71,1.2-.26.3-.45.07-.46-.34s0-1.47,0-1.69c0-.95,2.49-3.46,2.49-3.46"/><path class="cls-11" d="M325.36,110.43l18.13,18.08-2.76,34,3,.77s9.22-35.46,7.6-37.16l-17.64-24.39a6,6,0,0,0-8.71-.21h0A6,6,0,0,0,325.36,110.43Z"/><path class="cls-8" d="M247.46,121.65s-5.61-1.54-6.76-1.59c-.65,0-1.22-1.68-.84-1.83s3.48-.54,3.57-1.24c0-.16-1-.62-1.17-.75s0-.46.36-.45l1.68.07c1,0,3.29,2.67,3.29,2.67"/><rect class="cls-19" x="256.54" y="115.79" width="2.08" height="21.04"/><rect class="cls-19" x="265.27" y="126.03" width="2.08" height="19.53" transform="translate(130.52 402.1) rotate(-90)"/><line class="cls-12" x1="190.28" y1="213.69" x2="190.28" y2="255.47"/><line class="cls-12" x1="95.71" y1="213.69" x2="95.71" y2="255.47"/><rect class="cls-20" x="82.54" y="204.42" width="123.48" height="14.51"/><rect class="cls-21" x="82.54" y="159.67" width="123.48" height="7.23"/><rect class="cls-22" x="82.54" y="173.5" width="123.48" height="7.23"/><path class="cls-23" d="M214.93,255.11l0,6.84H233a1.73,1.73,0,0,0-1.3-1.68l-5.9-1.49c-1.77-.45-5-1.87-5.38-3.67Z"/><polygon class="cls-24" points="233.82 234.93 227.5 237.72 230.44 241.81 235.81 240.66 233.82 234.93"/><path class="cls-23" d="M230.44,241.81l2,6.53,17.22-5.45h0a1.73,1.73,0,0,0-1.75-1.2l-6.07.35c-1.83.11-5.34-.27-6.24-1.87Z"/><polyline class="cls-25" points="160.15 188.25 208.03 187.52 218.72 249.31 210.81 249.31 192.28 204.52 151.49 207.72 146.49 188.25"/><polygon class="cls-24" points="218.72 249.31 210.81 249.31 214.93 255.63 220.57 255.63 218.72 249.31"/><path class="cls-10" d="M178.65,181.31l28.25-8.43,27,62.11-6.4,2.73L202,188.25l-50.5,19.47c-11.2,1.23-20.9-8.2-20.6-19.47h29.26Z"/><path class="cls-24" d="M159.45,162.39s17.4,18.91,19.2,18.92l28.25-8.43.46-3.16-24.28,3.19L163,150.76"/><polygon class="cls-26" points="122.52 150.76 130.89 188.25 158.22 188.23 162.95 150.76 122.52 150.76"/><path class="cls-24" d="M206.71,173.08s5.74-1.57,6.91-1.62c.66,0,1.25-1.72.86-1.87s-3.56-.55-3.65-1.27c0-.16,1.06-.63,1.2-.76.29-.28.05-.47-.37-.46s-1.5.07-1.72.07c-1,0-3.36,2.72-3.36,2.72"/><rect class="cls-19" x="221.8" y="151.64" width="2.13" height="21.49" transform="translate(445.73 324.78) rotate(-180)"/><rect class="cls-19" x="212.89" y="162.1" width="2.13" height="19.94" transform="translate(41.89 386.03) rotate(-90)"/><path class="cls-24" d="M157.45,154.3a63.6,63.6,0,0,1,2.68-5.78c.37-.54-.61-2-1-1.82s-2.61,2.5-3.23,2.14c-.14-.08.14-1.23.12-1.42,0-.4-.34-.33-.58,0s-.86,1.23-1,1.41c-.58.78,0,4.36,0,4.36"/><path class="cls-24" d="M121.11,152.93l16.13,21.53,17.28-21.26,2.93,1.1s-12.24,23.77-17.87,32.4a2.94,2.94,0,0,1-4.78.21c-5.44-6.9-18.79-24.07-19.26-26.82h0A6.14,6.14,0,0,1,121.11,152.93Z"/><path class="cls-24" d="M149.1,128.94l.68,14.63-5,1.92v8a3.5,3.5,0,0,1-3.5,3.49h0a3.49,3.49,0,0,1-3.49-3.49V128.94Z"/><path class="cls-27" d="M150.08,135H148a.65.65,0,0,0-.65.63c0,.69.07,1.72.69,2.06a8.23,8.23,0,0,0,2.47,0,.41.41,0,0,0,.37-.41V136A.81.81,0,0,0,150.08,135Z"/><line class="cls-27" x1="147.36" y1="135.67" x2="141.71" y2="135.67"/><path class="cls-28" d="M148,127.62c4.3,1.88,3.08,5.66,0,5.31-4.46-.5-3.86.81-3.21,2.6.23.65-1.71,2-1.71,2h-1.15s-1.22-3.22-2.8-1.58c-1.21,1.26.84,4.43.84,4.43-1.15.8-7.22-5.5-3.43-11.92C138.62,124.85,144.23,126,148,127.62Z"/><path class="cls-28" d="M150.12,132.28s2.1-2.16.54-4c-.88-1-1.67-.27-2.71-.66s-1-1.25-2-1.51c-1.33-.36-1.27.31-2.37.16s-1.09-.92-2.35-.92c-1.54,0-1.82,1-2.51,1.21"/><path class="cls-28" d="M143,137.57s.79,4,4.27,3.25c1.37-1.85,2.36-1.36,2.36-1.36l.15,4.11-5,1.92s-5.09-2.59-2.94-7.92Z"/><path class="cls-26" d="M133.23,163.59c0-5.53-4.48-12.83-10-12.83s-10,7.3-10,12.83Z"/><polygon class="cls-29" points="374.83 262.92 407.55 244.03 374.83 225.15 342.12 244.03 374.83 262.92"/><polygon class="cls-30" points="374.83 250.58 407.55 231.69 374.83 212.81 342.12 231.69 374.83 250.58"/><g id="Web-Icons---2C-25-4" data-name="Web-Icons---2C-25"><g id="Icons-25-4" data-name="Icons-25"><g id="MDB-Service-23-4" data-name="MDB-Service-23"><path class="cls-31" d="M352.67,184.79s-1.17,25.88,15.92,19.51C377.09,187.54,352.67,184.79,352.67,184.79Z"/></g></g></g><g id="Web-Icons---2C-25-5" data-name="Web-Icons---2C-25"><g id="Icons-25-5" data-name="Icons-25"><g id="MDB-Service-23-5" data-name="MDB-Service-23"><path class="cls-32" d="M374.27,162.25s-17.31,19.72.1,25.17C391.36,179.4,374.27,162.25,374.27,162.25Z"/></g></g></g><path class="cls-33" d="M361.35,196a37.45,37.45,0,0,1,8.34,10.63,40.11,40.11,0,0,1,4.64,19.32"/><line class="cls-34" x1="374.33" y1="177.65" x2="374.33" y2="232.26"/><rect class="cls-35" x="755.69" y="87.12" width="30.12" height="59.09"/><polygon class="cls-36" points="797.79 201.21 778.99 212.06 797.79 222.92 816.59 212.06 797.79 201.21"/><polygon class="cls-36" points="778.99 212.08 760.19 222.94 778.99 233.79 797.79 222.94 778.99 212.08"/><polygon class="cls-36" points="722.62 222.92 741.42 233.77 760.22 222.92 741.42 212.06 722.62 222.92"/><polygon class="cls-37" points="795.93 78 816.54 66.1 795.93 54.21 775.33 66.1 795.93 78"/><path class="cls-38" d="M775.37,176.14,795.93,188V78l-20.6-11.9C775.34,74,775.36,168.26,775.37,176.14Z"/><polygon class="cls-39" points="795.97 188.03 816.54 176.15 816.54 66.09 795.93 77.99 795.93 188 795.97 188.03"/><polygon class="cls-40" points="795.68 70.37 814.95 59.25 795.68 48.12 776.41 59.25 795.68 70.37"/><polygon class="cls-41" points="795.68 63.1 814.95 51.98 795.68 40.86 776.41 51.98 795.68 63.1"/><g id="Web-Icons---2C-25-6" data-name="Web-Icons---2C-25"><g id="Icons-25-6" data-name="Icons-25"><g id="MDB-Service-23-6" data-name="MDB-Service-23"><path class="cls-42" d="M782.63,24.35s-.69,15.25,9.37,11.5C797,26,782.63,24.35,782.63,24.35Z"/></g></g></g><g id="Web-Icons---2C-25-7" data-name="Web-Icons---2C-25"><g id="Icons-25-7" data-name="Icons-25"><g id="MDB-Service-23-7" data-name="MDB-Service-23"><path class="cls-43" d="M795.35,11.08s-10.19,11.61,0,14.82C805.41,21.18,795.35,11.08,795.35,11.08Z"/></g></g></g><path class="cls-44" d="M787.74,30.94a22.15,22.15,0,0,1,4.91,6.26,23.61,23.61,0,0,1,2.73,11.38"/><g id="Web-Icons---2C-25-8" data-name="Web-Icons---2C-25"><g id="Icons-25-8" data-name="Icons-25"><g id="MDB-Service-23-8" data-name="MDB-Service-23"><path class="cls-45" d="M808.15,24.35s.69,15.25-9.38,11.5C793.77,26,808.15,24.35,808.15,24.35Z"/></g></g></g><path class="cls-44" d="M803,30.94a22,22,0,0,0-4.92,6.26,23.61,23.61,0,0,0-2.73,11.38"/><line class="cls-46" x1="795.38" y1="20.15" x2="795.38" y2="52.31"/><g id="Web-Icons---2C-24"><g id="Icons-24"><g id="MDB-Service-22"><path class="cls-5" d="M743.77,202.45s4.08,26.11,19.61,16.11C768.35,200.09,743.77,202.45,743.77,202.45Z"/></g></g></g><g id="Web-Icons---2C-25-9" data-name="Web-Icons---2C-25"><g id="Icons-25-9" data-name="Icons-25"><g id="MDB-Service-23-9" data-name="MDB-Service-23"><path class="cls-5" d="M781.14,214.42s.67,14.89-9.16,11.22C767.09,216,781.14,214.42,781.14,214.42Z"/></g></g></g><path class="cls-5" d="M776.15,220.86a21.58,21.58,0,0,0-4.8,6.11,23.1,23.1,0,0,0-2.67,11.11v19"/><path class="cls-5" d="M753.59,209.94a27.62,27.62,0,0,1,9.6,8.34,31.64,31.64,0,0,1,5.49,19.32"/><g class="cls-1"><polygon class="cls-2" points="1194.38 164.1 1213.18 153.25 1194.38 142.4 1175.58 153.25 1194.38 164.1"/><polygon class="cls-2" points="1081.84 229.33 1063.04 240.18 1081.84 251.03 1100.64 240.18 1081.84 229.33"/><polygon class="cls-2" points="1100.38 153.27 1081.58 164.12 1100.38 174.98 1119.18 164.12 1100.38 153.27"/><polygon class="cls-2" points="1100.38 174.96 1081.58 185.81 1100.38 196.66 1119.18 185.81 1100.38 174.96"/><polygon class="cls-2" points="1081.58 185.78 1062.79 196.63 1081.58 207.49 1100.38 196.63 1081.58 185.78"/><polygon class="cls-2" points="1231.98 164.1 1213.18 153.25 1194.38 164.1 1213.18 174.96 1231.98 164.1"/><polygon class="cls-2" points="1194.38 185.81 1213.18 174.96 1194.38 164.1 1175.58 174.96 1194.38 185.81"/><polygon class="cls-2" points="1175.55 153.24 1156.78 142.41 1137.98 153.26 1156.75 164.09 1175.55 153.24"/></g><rect class="cls-35" x="865.2" y="50.03" width="30.12" height="112.7"/><polygon class="cls-36" points="882.41 231.5 863.61 242.36 882.41 253.21 901.21 242.36 882.41 231.5"/><polygon class="cls-36" points="901.24 198.94 882.44 209.8 901.24 220.65 920.04 209.8 901.24 198.94"/><polygon class="cls-36" points="1028.04 242.34 1046.84 231.48 1028.04 220.63 1009.24 231.48 1028.04 242.34"/><polygon class="cls-36" points="976.4 242.34 995.2 231.48 976.4 220.63 957.61 231.48 976.4 242.34"/><polygon class="cls-36" points="976.4 220.65 995.2 209.8 976.4 198.94 957.61 209.8 976.4 220.65"/><polygon class="cls-36" points="995.2 209.83 1014 198.97 995.2 188.12 976.4 198.97 995.2 209.83"/><polygon class="cls-36" points="882.41 209.8 863.61 220.65 882.41 231.5 901.21 220.65 882.41 209.8"/><polygon class="cls-36" points="901.24 242.37 920.01 253.2 938.8 242.35 920.04 231.51 901.24 242.37"/><polygon class="cls-47" points="865.4 106.37 880.61 97.59 865.4 88.81 850.2 97.59 865.4 106.37"/><path class="cls-48" d="M850.22,192l15.18,8.76V106.37l-15.2-8.78C850.21,103.41,850.22,186.17,850.22,192Z"/><polygon class="cls-49" points="865.43 200.76 880.61 192 880.61 97.58 865.4 106.36 865.4 200.75 865.43 200.76"/><path class="cls-50" d="M986.93,62.86a6.17,6.17,0,0,0-9.21-5.42,7.4,7.4,0,0,0-6.87-4.76,7.61,7.61,0,0,0-2.41.39A10.24,10.24,0,0,0,950.05,55a6.2,6.2,0,0,0-8.2,5.82"/><path class="cls-50" d="M1201.76,69.64a6.18,6.18,0,0,0-9.22-5.42,7.4,7.4,0,0,0-9.28-4.37,10.24,10.24,0,0,0-18.39,1.92,6.2,6.2,0,0,0-8.2,5.82"/><path class="cls-50" d="M1158.41,56.78A7.73,7.73,0,0,0,1146.89,50a9.23,9.23,0,0,0-8.58-5.94,9.35,9.35,0,0,0-3,.48,12.8,12.8,0,0,0-23,2.41,7.54,7.54,0,0,0-2.47-.42,7.71,7.71,0,0,0-7.77,7.68"/><g class="cls-13"><polygon class="cls-51" points="1165.65 187.46 1198.92 167.6 1165.65 147.74 1132.38 167.6 1165.65 187.46"/><polygon class="cls-52" points="1165.65 174.48 1198.92 154.62 1165.65 134.76 1132.38 154.62 1165.65 174.48"/></g><g id="Web-Icons---2C-25-10" data-name="Web-Icons---2C-25"><g id="Icons-25-10" data-name="Icons-25"><g id="MDB-Service-23-10" data-name="MDB-Service-23"><path class="cls-5" d="M1188.09,105.8s-1.29,27.84,17.44,21C1214.84,108.76,1188.09,105.8,1188.09,105.8Z"/></g></g></g><g id="Web-Icons---2C-25-11" data-name="Web-Icons---2C-25"><g id="Icons-25-11" data-name="Icons-25"><g id="MDB-Service-23-11" data-name="MDB-Service-23"><path class="cls-5" d="M1211.85,81.56s-19.06,21.21,0,27.07C1230.49,100,1211.85,81.56,1211.85,81.56Z"/></g></g></g><path class="cls-5" d="M1197.59,117.83a40.43,40.43,0,0,1,9.15,11.43,42.61,42.61,0,0,1,5.09,20.77"/><g id="Web-Icons---2C-25-12" data-name="Web-Icons---2C-25"><g id="Icons-25-12" data-name="Icons-25"><g id="MDB-Service-23-12" data-name="MDB-Service-23"><path class="cls-5" d="M1235.57,105.8s1.29,27.84-17.44,21C1208.82,108.76,1235.57,105.8,1235.57,105.8Z"/></g></g></g><path class="cls-5" d="M1226.07,117.83a40.43,40.43,0,0,0-9.15,11.43,42.61,42.61,0,0,0-5.09,20.77"/><line class="cls-5" x1="1211.83" y1="98.12" x2="1211.83" y2="154.32"/><path class="cls-53" d="M916,121.09a39.23,39.23,0,0,0-5.85-1.47c-.72,0-1.44-1.81-1-2s3.86-.75,3.93-1.54c0-.17-1.19-.64-1.35-.78-.33-.29-.07-.51.38-.52H914c1.06,0,3.78,2.82,3.78,2.82"/><polygon class="cls-53" points="935.01 106.21 935.01 129.26 917.78 117.61 916.02 121.09 939.54 140.85 947.09 106.26 935.01 106.21"/><polygon class="cls-11" points="939.54 140.85 947.35 94.35 975.8 94.35 976.26 104.7 970.11 141.53 939.54 140.85"/><polygon class="cls-53" points="989.4 223.89 995.88 220.87 999.44 227.59 994.37 231.21 989.4 223.89"/><path class="cls-54" d="M1004.79,232.09l-15.12,10.8h0a1.71,1.71,0,0,1,.09-2.11l3.89-4.59a4.75,4.75,0,0,0,.72-5h0l5.07-3.62Z"/><polygon class="cls-53" points="936.47 243.19 943.41 243.19 943.38 249.19 936.14 249.19 936.47 243.19"/><path class="cls-54" d="M943.41,255.45H925.52a1.71,1.71,0,0,1,1.3-1.66l5.83-1.48a4.75,4.75,0,0,0,3.49-3.63h7.24Z"/><line class="cls-55" x1="967.6" y1="103.42" x2="941.7" y2="103.42"/><path class="cls-10" d="M980.25,192.33l-10.14-50.8-18-.68H939.21l-9.58,59.51,6.84,42.82h6.94l2.72-41.85,8.48-36.16a1.18,1.18,0,0,1,2.28.14l7.28,34.11,25.23,24.47,6.48-3Z"/><path class="cls-53" d="M937.4,133s-6.91-1.6-8.31-1.6c-.79,0-1.57-2-1.12-2.19s4.22-.83,4.3-1.68c0-.19-1.3-.71-1.47-.86-.37-.32-.09-.55.41-.56.34,0,1.79,0,2.06,0,1.16,0,4.13,3.08,4.13,3.08"/><polygon class="cls-53" points="976.02 106.18 966.72 129.92 937.44 128.94 937.4 132.95 971.13 137.33 988.2 106.47 976.02 106.18"/><path class="cls-11" d="M988.2,106.75a12.4,12.4,0,0,0-24.8,0Z"/><path class="cls-11" d="M959.76,106.75a12.41,12.41,0,0,0-24.81,0Z"/><path class="cls-53" d="M968.72,76.2l.81,7.66a4.44,4.44,0,0,1-3.26,4.74h0a2.14,2.14,0,0,0-1.59,2.08v6.48a2.14,2.14,0,0,1-2.15,2.14h-1.94a2.15,2.15,0,0,1-2.15-2.14V76.42a2.15,2.15,0,0,1,2.15-2.15h6A2.14,2.14,0,0,1,968.72,76.2Z"/><path class="cls-56" d="M968.61,75.12c.44,1.41-1.33,2.19-2.88,3.11-1.35.8-3,1-3.67,2.47-1.86,3.73,4.3,12.77-2.67,17.83-3.13,2.26-.38,7.53-8.84,7.52-3.21,0-5.44-3.14-3.93-6A13.82,13.82,0,0,1,949,97c4.22-4.32-2.34-4.54,1.71-10.35,3.83-5.51,1.85-10.24,4.61-13C960.9,68,967.63,72,968.61,75.12Z"/><path class="cls-53" d="M961.88,82.2c-.92-1.21-2-1.2-2.56-.4-.75,1.12-.2,4.26,2.3,3.73S961.88,82.2,961.88,82.2Z"/><path class="cls-10" d="M975.2,167s3-19.16-5.09-25.5"/><polygon class="cls-57" points="1016.77 113.62 1009 135.11 1022.43 149.63 1020.21 154.63 999.26 134.26 1003.27 110.79 1016.77 113.62"/><path class="cls-54" d="M1016.77,113.62l-13.5-2.83s1.68-16.47,10.28-16.47Z"/><path class="cls-54" d="M1019.58,140s-3.91-36.54-6.18-45.74l41.88-1L1048.55,140Z"/><polygon class="cls-57" points="1069.78 243.95 1078.08 243.95 1079.26 248.68 1073.03 248.68 1069.78 243.95"/><path class="cls-7" d="M1081,255.45h-18.58a1.7,1.7,0,0,1,1.29-1.66l5.84-1.48a4.74,4.74,0,0,0,3.48-3.63h6.23Z"/><polygon class="cls-57" points="1016.84 242.38 1023.78 242.38 1023.76 248.39 1016.51 248.39 1016.84 242.38"/><path class="cls-7" d="M1023.79,254.64H1005.9a1.71,1.71,0,0,1,1.29-1.66l5.83-1.47a4.77,4.77,0,0,0,3.49-3.64h7.24Z"/><line class="cls-55" x1="1047.97" y1="102.62" x2="1022.07" y2="102.62"/><path class="cls-10" d="M1060.61,200.24,1048.55,140h-29l-16.23,59.51,13.49,42.83h6.95l-1.28-39.68,8.34-35.59a1.35,1.35,0,0,1,2.64,0l6.18,30.16L1069.78,244h8.3Z"/><polygon class="cls-57" points="1052.02 112.64 1059.79 134.31 1046.36 148.83 1048.58 153.83 1069.52 133.46 1065.52 109.8 1052.02 112.64"/><path class="cls-57" d="M1042.86,73.7l.66,14.14-4.82,1.85v7.76a3.37,3.37,0,0,1-3.38,3.37h0a3.37,3.37,0,0,1-3.37-3.37V73.7Z"/><path class="cls-58" d="M1041.75,72.42c1.56.68,4.12-1.54,4.37-.65.4,1.49-2.52,6-4.39,5.79-4.32-.49-4.9.87-4.28,2.6.23.62-.47,1.88-.47,1.88h-1.12s-1.17-3.11-2.7-1.53c-1.17,1.22.81,4.28.81,4.28-1.12.77-7-5.32-3.31-11.52C1032.74,69.75,1038.16,70.84,1041.75,72.42Z"/><path class="cls-54" d="M1052,112.63l13.5-2.83s-1.69-16.47-10.28-16.47Z"/><path class="cls-8" d="M1085.71,113.66s-6.29-2.68-7.63-2.92c-.74-.13-1.16-2.15-.69-2.26s4.15-.08,4.36-.88c0-.18-1.11-.89-1.25-1.06-.29-.36,0-.54.49-.47l2,.35c1.11.17,3.41,3.63,3.41,3.63"/><polyline class="cls-8" points="1133.48 120.12 1116.11 137.66 1084.82 113.18 1086.36 110.05 1114.15 124.76 1132.04 105.35"/><polygon class="cls-8" points="1130.87 243.19 1137.82 243.19 1137.79 249.19 1130.55 249.19 1130.87 243.19"/><path class="cls-26" d="M1137.82,255.45h-17.89a1.7,1.7,0,0,1,1.3-1.66l5.83-1.48a4.77,4.77,0,0,0,3.49-3.63h7.24Z"/><polygon class="cls-8" points="1183.09 236.38 1186.16 229.75 1192.73 236.12 1189.9 241.81 1183.09 236.38"/><path class="cls-26" d="M1192.38,235.8l-2.48,6a7,7,0,0,1,3.21,5.29l-.08,6a1.71,1.71,0,0,0,1.27,1.68l4.63-17.28Z"/><path class="cls-10" d="M1161.94,196.85l-5.24-49.78-9.49-.18,0-.18h-9.64l-7.45-.15,0,.15h-4.33l-10.19,47.79,15.2,48.68h7L1132,196.85l7.24-29.73a.82.82,0,0,1,1.63-.08l4.23,34.47,38,34.87,3.07-6.63Z"/><path class="cls-59" d="M1174.39,114.5c-5.3-7.94-11.86-10.75-21.41-10.75H1132.6a11.36,11.36,0,0,0-6.22,1.85l-11.88,7.74a17.62,17.62,0,0,0,13.09,11.26l-1.73,22.11,30.84.3,5.83-21.8C1166.53,121.83,1174.39,114.5,1174.39,114.5Z"/><path class="cls-10" d="M1156.7,147.07s7,13.28,0,27.74"/><path class="cls-8" d="M1139.93,153.08s-5.36,4.25-6.21,5.31c-.47.59-2.44,0-2.32-.47s1.91-3.69,1.31-4.26c-.13-.12-1.31.56-1.53.6-.46.08-.46-.27-.17-.66s1.08-1.34,1.23-1.54c.68-.9,4.82-1.27,4.82-1.27"/><polygon class="cls-8" points="1162.53 125.21 1156.82 141.13 1137.06 150.79 1139.08 153.63 1165.22 146.47 1174.39 114.5 1162.53 125.21"/><path class="cls-8" d="M1136.43,81.82l-1.08,10.38a3.42,3.42,0,0,0,2.52,3.67l2,.54a1,1,0,0,1,.75,1v6.84a3.31,3.31,0,0,0,3.31,3.31h0a3.31,3.31,0,0,0,3.31-3.31V81.92a1,1,0,0,0-1-1h-8.8A1,1,0,0,0,1136.43,81.82Z"/><path class="cls-60" d="M1136.43,81.82c-.49,1.57-.39,2.78,3.63,3.32,4.57.6,4.4,4.55,4.57,6s-3.44,9.34,1.14,9.34c15.69,0,9.93-15.16,4.84-20.27C1144.63,74.22,1137.47,78.51,1136.43,81.82Z"/><path class="cls-8" d="M1143.59,89.35c1-1.29,2.16-1.28,2.73-.43.79,1.19.21,4.53-2.45,4S1143.59,89.35,1143.59,89.35Z"/><polygon class="cls-61" points="518.33 172.55 604.99 122.43 574.71 104.95 488.05 155.07 518.33 172.55"/><line class="cls-62" x1="574.69" y1="105.02" x2="574.69" y2="160.05"/><line class="cls-62" x1="601.31" y1="120" x2="601.31" y2="182.24"/><line class="cls-63" x1="518.64" y1="172.06" x2="518.64" y2="230.27"/><line class="cls-63" x1="488.09" y1="155.35" x2="488.09" y2="212.98"/><g class="cls-1"><polygon class="cls-2" points="620.05 175.42 638.85 164.57 620.05 153.71 601.25 164.57 620.05 175.42"/><polygon class="cls-2" points="507.51 240.65 488.71 251.5 507.51 262.35 526.31 251.5 507.51 240.65"/><polygon class="cls-2" points="526.05 164.59 507.25 175.44 526.05 186.3 544.85 175.44 526.05 164.59"/><polygon class="cls-2" points="526.05 186.28 507.25 197.13 526.05 207.98 544.85 197.13 526.05 186.28"/><polygon class="cls-2" points="507.25 197.1 488.46 207.95 507.26 218.8 526.05 207.95 507.25 197.1"/><polygon class="cls-2" points="657.65 175.42 638.85 164.57 620.05 175.42 638.85 186.28 657.65 175.42"/><polygon class="cls-2" points="620.05 197.13 638.85 186.28 620.05 175.42 601.25 186.28 620.05 197.13"/><polygon class="cls-2" points="476.81 143.93 495.61 133.08 476.81 122.22 458.01 133.08 476.81 143.93"/><polygon class="cls-2" points="514.41 143.93 495.61 133.08 476.81 143.93 495.61 154.78 514.41 143.93"/><polygon class="cls-2" points="476.81 165.64 495.61 154.78 476.81 143.93 458.01 154.78 476.81 165.64"/><polygon class="cls-2" points="457.97 133.07 439.21 122.23 420.41 133.09 439.17 143.92 457.97 133.07"/></g><rect class="cls-64" x="434.37" y="69.52" width="5.87" height="31.13"/><rect class="cls-64" x="448.41" y="69.52" width="5.87" height="31.13"/><rect class="cls-64" x="454.28" y="73.16" width="5.87" height="27.49"/><rect class="cls-65" x="464.93" y="73.16" width="4.61" height="27.49" transform="translate(-3.02 155.58) rotate(-18.84)"/><rect class="cls-66" x="439.56" y="65.4" width="9.57" height="35.24"/><rect class="cls-67" x="422.64" y="99.6" width="63.64" height="4.08"/><polyline class="cls-64" points="488.37 45.01 501.89 37.15 515.4 45.01"/><circle class="cls-64" cx="501.89" cy="52.85" r="5.11"/><polyline class="cls-64" points="501.89 50.15 501.89 53.82 504.37 53.82"/><path class="cls-68" d="M501.88,42.23h0A1.78,1.78,0,0,1,503.68,44v1.11a0,0,0,0,1,0,0H500.1a0,0,0,0,1,0,0V44A1.78,1.78,0,0,1,501.88,42.23Z"/><line class="cls-64" x1="501.89" y1="61.1" x2="501.89" y2="66.41"/><circle class="cls-68" cx="501.89" cy="69.73" r="3.32"/><polyline class="cls-64" points="510.9 42.71 510.9 61.1 492.88 61.1 492.88 42.71"/><polygon class="cls-69" points="699.38 205.32 729.66 187.84 699.38 170.36 669.11 187.84 699.38 205.32"/><g id="Web-Icons---2C-25-13" data-name="Web-Icons---2C-25"><g id="Icons-25-13" data-name="Icons-25"><g id="MDB-Service-23-13" data-name="MDB-Service-23"><path class="cls-70" d="M684.2,145.09s-.83,18.11,11.35,13.65C701.61,147,684.2,145.09,684.2,145.09Z"/></g></g></g><g id="Web-Icons---2C-25-14" data-name="Web-Icons---2C-25"><g id="Icons-25-14" data-name="Icons-25"><g id="MDB-Service-23-14" data-name="MDB-Service-23"><path class="cls-71" d="M699.66,129.32s-12.4,13.8,0,17.61C711.78,141.32,699.66,129.32,699.66,129.32Z"/></g></g></g><path class="cls-72" d="M690.38,152.92a26.25,26.25,0,0,1,6,7.43,27.77,27.77,0,0,1,3.3,13.52"/><g id="Web-Icons---2C-25-15" data-name="Web-Icons---2C-25"><g id="Icons-25-15" data-name="Icons-25"><g id="MDB-Service-23-15" data-name="MDB-Service-23"><path class="cls-73" d="M715.09,145.09s.84,18.11-11.34,13.65C697.69,147,715.09,145.09,715.09,145.09Z"/></g></g></g><path class="cls-72" d="M708.91,152.92a26.21,26.21,0,0,0-5.95,7.43,27.67,27.67,0,0,0-3.31,13.52"/><line class="cls-72" x1="699.65" y1="140.1" x2="699.65" y2="176.66"/><path class="cls-74" d="M691.54,170H707.9s3.29,7.54-3.84,17.19l-.47.26a7.27,7.27,0,0,1-7.45-.26h0S688.79,177.68,691.54,170Z"/><polygon class="cls-75" points="543.39 144.1 569.13 129.21 560.14 124.02 534.39 138.91 543.39 144.1"/><path class="cls-76" d="M561.1,137.32s-6.32-.52-7.56-.34c-.69.1-1.64-1.56-1.27-1.79s3.63-1.28,3.59-2.05c0-.17-1.24-.45-1.41-.57-.37-.23-.15-.47.29-.55l1.82-.26c1-.17,4.05,2.2,4.05,2.2"/><polyline class="cls-77" points="616.06 144.73 567.06 163.39 603.12 219.77 611.94 219.72 588.03 169.76 647.15 144.73 630.64 144.73"/><polygon class="cls-76" points="548.13 217.49 555.62 217.49 553.78 223.96 545.98 223.96 548.13 217.49"/><path class="cls-54" d="M553.81,230.7H534.55a1.84,1.84,0,0,1,1.39-1.79l6.28-1.59a5.12,5.12,0,0,0,3.76-3.91h7.8Z"/><path class="cls-10" d="M616.69,144.73l-47.16-3.87-21.4,76.63h7.49l24.15-58.68,45.53,6.68c12,1.31,22.3-8.74,22-20.76Z"/><path class="cls-7" d="M656.19,104.75l-8.92,40-31.54,0s-.69-12.25-.69-22.46c0-1.11-1.46-.93-3.41,1.31l-8.52,8.65c-3.48,3.87-4.85,5.11-6.77,5.11l-35.23,0-.49-3.36,32.61-4.24,11-15.52c4.42-6.44,6.15-8.8,11.49-9.47"/><path class="cls-76" d="M623.37,86.53l.07,7.71a4.43,4.43,0,0,0,3.78,4.34h0a2.15,2.15,0,0,1,1.81,1.88l.74,6.45c.13,1.17,4.3,1.67,4.3,1.67A2.15,2.15,0,0,0,636,106.2l-2.35-20.61a2.14,2.14,0,0,0-2.37-1.89l-6,.68A2.14,2.14,0,0,0,623.37,86.53Z"/><path class="cls-76" d="M630.85,91.73c.78-1.31,1.88-1.43,2.51-.69.86,1,.68,4.21-1.87,4S630.85,91.73,630.85,91.73Z"/><path class="cls-23" d="M630.13,90.28c-1-1.43-6.73-.19-6.74-2s-1.53-3.54.5-6.45A8.68,8.68,0,0,1,634.32,79c5.22,2.28,6.76,13.49,5.48,18.24-1.12,4.14,4.17,5.29,6,7.75s-1.27,6.57-5.3,5.14c-5.62-2-12.82,1.45-14.85-.22-5.73-4.71,5.73-7.34,2.2-11.16C625.5,96.25,632.5,93.49,630.13,90.28Z"/><path class="cls-59" d="M649.87,108.34l-13.33,21.94L614.12,102.6l-1.85,2.91L633.36,140a3.8,3.8,0,0,0,6.1-.32l21.62-24.66a6.56,6.56,0,0,0-1.89-9.3h0A6.55,6.55,0,0,0,649.87,108.34Z"/><path class="cls-76" d="M612.45,105.55s-4.5-4.47-5.57-5.13c-.59-.37-.25-2.25.19-2.19s3.59,1.36,4,.75c.1-.14-.65-1.15-.71-1.35-.13-.41.19-.46.58-.23s1.35.85,1.56,1c.9.53,1.69,4.29,1.69,4.29"/><polygon class="cls-76" points="602.94 219.51 611.88 219.51 613.15 224.6 606.45 224.6 602.94 219.51"/><path class="cls-54" d="M615,231.89H595a1.83,1.83,0,0,1,1.39-1.79l6.28-1.59a5.14,5.14,0,0,0,3.76-3.91h6.7Z"/><line class="cls-63" x1="631.24" y1="170.17" x2="606.56" y2="232.02"/><line class="cls-63" x1="640.06" y1="171.46" x2="666.76" y2="232.02"/><line class="cls-63" x1="635.44" y1="168.3" x2="635.44" y2="207.75"/><path class="cls-78" d="M660.44,100.8c-5.73,0-11.87,49.76-21.2,55.41-16.35,9.89-46.49-1.05-46.49,4.86,0,5.57,40.85,24.89,62,4C670,150,666.3,100.8,660.44,100.8Z"/><path class="cls-79" d="M531,145.36l2.72,2.08a1.63,1.63,0,0,1,0,2.55l-.54.44a1.63,1.63,0,0,1-2,0l-2.72-2.13a1.63,1.63,0,0,1,0-2.59l.54-.4A1.62,1.62,0,0,1,531,145.36Z"/><polygon class="cls-80" points="522.46 80.02 522.48 80.02 539.26 70.33 551.91 63.02 554.76 64.67 539.86 73.27 524.97 81.87 524.96 81.87 511.92 89.4 509.06 87.75 522.46 80.02"/><polygon class="cls-81" points="511.92 89.38 526.81 80.78 526.81 80.79 539.86 73.25 539.86 73.23 554.76 64.63 554.76 103.52 539.86 112.12 539.86 112.14 524.97 120.74 524.97 120.73 511.92 128.26 511.92 89.38"/><polygon class="cls-82" points="509.06 87.74 511.9 89.38 511.9 128.26 509.06 126.63 509.06 87.74"/><g class="cls-13"><polygon class="cls-84" points="512.05 93.26 512.16 130.93 550.15 108.97 550.16 110.6 510.75 133.37 510.64 94.08 512.05 93.26"/></g><polygon class="cls-85" points="522.25 102.97 531.6 97.61 531.6 100.01 522.26 105.36 522.25 102.97"/><polygon class="cls-86" points="533.21 101.63 533.22 104.03 525.9 108.25 525.9 105.86 533.21 101.63"/><polygon class="cls-85" points="536.67 99.63 536.68 102.03 534.68 103.18 534.67 100.79 536.67 99.63"/><polygon class="cls-85" points="544.01 90.36 544.02 92.76 542.03 93.91 542.02 91.51 544.01 90.36"/><polygon class="cls-85" points="542.49 86.33 542.5 88.73 540.5 89.89 540.5 87.49 542.49 86.33"/><polygon class="cls-85" points="549.7 77.21 549.7 79.61 547.7 80.76 547.7 78.36 549.7 77.21"/><polygon class="cls-85" points="524.47 111.65 524.47 114.04 522.48 115.19 522.47 112.8 524.47 111.65"/><polygon class="cls-85" points="520.21 119.07 520.22 121.46 518.23 122.61 518.22 120.22 520.21 119.07"/><polygon class="cls-26" points="538.83 88.45 538.83 90.85 533.12 94.15 533.11 91.75 538.83 88.45"/><polygon class="cls-26" points="540.51 92.45 540.52 94.84 533.13 99.11 533.12 96.72 540.51 92.45"/><polygon class="cls-68" points="524.86 91.55 524.86 93.95 518.15 97.82 518.15 95.42 524.86 91.55"/><polygon class="cls-86" points="531.57 87.67 531.58 90.07 526.46 93.03 526.45 90.63 531.57 87.67"/><polygon class="cls-85" points="531.58 92.63 531.59 95.03 522.25 100.42 522.24 98.03 531.58 92.63"/><polygon class="cls-86" points="546.35 79.14 546.35 81.54 539.64 85.42 539.63 83.02 546.35 79.14"/><polygon class="cls-68" points="538.29 83.79 538.29 86.19 533.17 89.15 533.17 86.75 538.29 83.79"/><path class="cls-87" d="M512.05,91.63l49.12-28.35.11,39.29-1.42.81-47.7,27.54-.11-37.66ZM522.25,103v2.39L531.6,100V97.62L522.25,103m9.33-10.34L522.24,98v2.4L531.59,95v-2.4m8.94,2.21V92.45l-7.39,4.26v2.4l7.39-4.27m-7.3,9.19v-2.4l-7.31,4.22v2.4l7.32-4.22m13.13-22.49v-2.4L539.63,83v2.4l6.71-3.88m-28.2,13.88v2.4l6.7-3.87v-2.4l-6.71,3.87m15-3.67v2.4l5.71-3.3v-2.4l-5.71,3.3m-6.66-1.12V93l5.12-3v-2.4l-5.12,3m6.72-3.88v2.4l5.12-3v-2.4l-5.12,3m16.53-7.14v-2.4l-2,1.15v2.4l2-1.15M544,92.76v-2.4l-2,1.15v2.4l2-1.15m-3.52-2.87,2-1.16v-2.4l-2,1.16v2.4M536.68,102v-2.4l-2,1.16v2.39l2-1.15m-16.46,19.43v-2.39l-2,1.15v2.39l2-1.15m4.25-7.42v-2.39l-2,1.15v2.39l2-1.15"/></g></svg>